<?xml version="1.0" encoding="utf-8"?>
<!-- Generator: Adobe Illustrator 19.0.0, SVG Export Plug-In . SVG Version: 6.00 Build 0)  -->
<svg version="1.1" xmlns="http://www.w3.org/2000/svg" xmlns:xlink="http://www.w3.org/1999/xlink" x="0px" y="0px"
	 viewBox="0 0 617.6 539.7" style="enable-background:new 0 0 617.6 539.7;" xml:space="preserve">
<style type="text/css">
	.st0{fill:#20242C;}
	.st1{fill:#E8E3E1;}
	.st2{fill:#E7A15E;}
	.st3{fill:#F9CF9D;}
	.st4{fill:#A34823;}
	.st5{fill:#CE8345;}
	.st6{fill:#E59F5D;}
	.st7{fill:#EBBE80;}
	.st8{fill:#B5937D;}
	.st9{fill:#FFFFFF;}
</style>
<g id="Layer_3">
</g>
<g id="Layer_2">
	<rect x="1052.9" y="-232.5" class="st0" width="58.2" height="58.2"/>
	<rect x="1329" y="-232.5" class="st1" width="58.2" height="58.2"/>
	<rect x="2123.8" y="-232.5" class="st2" width="58.2" height="58.2"/>
	<rect x="2387.4" y="-232.5" class="st3" width="58.2" height="58.2"/>
	<rect x="1606.6" y="-232.5" class="st4" width="58.2" height="58.2"/>
	<rect x="1865.6" y="-232.5" class="st5" width="58.2" height="58.2"/>
	<g>
		<path class="st2" d="M389.3-350.7c-4.7,1-9.4,0.2-13.9-0.8h0c-3-1-5.7-2.9-8.1-5.1c-5.2-4.7-8.2-11.6-8.2-18.6
			c0-10.1,6-19.2,15.3-23.1c3.1-1.3,6.3-1.9,9.6-1.9c2.7,0,5.3,0.4,7.7,1c-5.1-3-11-4.6-17.1-4.6c-12.8,0-24.3,7.1-30.1,18.4
			c-3.6,25-19.3,40.4-33.1,54c-4.9,4.8-10.2,9.2-15.8,13.2c-3,2.1-6.1,4.1-9.3,5.9c-8.2,4.7-16.9,8.5-26,11.2
			C347.1-283.3,389.1-350.5,389.3-350.7z"/>
		<path class="st6" d="M343.6-392.4c0-0.1,0.1-0.2,0.1-0.4c0.1-0.2,0.1-0.5,0.2-0.7c0-0.1,0.1-0.2,0.1-0.4c0.1-0.2,0.1-0.5,0.2-0.7
			c0-0.1,0.1-0.2,0.1-0.3c0.1-0.3,0.2-0.7,0.3-1c0-0.1,0-0.1,0.1-0.2c0.1-0.3,0.2-0.5,0.3-0.8c0-0.1,0.1-0.2,0.1-0.3
			c0.1-0.2,0.2-0.4,0.2-0.6c0-0.1,0.1-0.2,0.1-0.4c0.1-0.2,0.2-0.4,0.3-0.6c0-0.1,0.1-0.2,0.1-0.3c0.1-0.2,0.2-0.5,0.3-0.7
			c0-0.1,0.1-0.2,0.1-0.2c0.1-0.3,0.3-0.6,0.4-0.9c0-0.1,0.1-0.2,0.1-0.3c0.1-0.2,0.2-0.4,0.3-0.6c0.1-0.1,0.1-0.2,0.2-0.3
			c0.1-0.2,0.2-0.4,0.3-0.6c0.1-0.1,0.1-0.2,0.2-0.3c0.1-0.2,0.2-0.4,0.3-0.6c0.1-0.1,0.1-0.2,0.2-0.3c0.2-0.3,0.3-0.5,0.5-0.8
			c0,0,0-0.1,0.1-0.1c0.2-0.3,0.4-0.6,0.6-0.8c0.1-0.1,0.1-0.2,0.2-0.3c0.1-0.2,0.3-0.4,0.4-0.6c0.1-0.1,0.2-0.2,0.2-0.3
			c0.1-0.2,0.3-0.4,0.4-0.5c0.1-0.1,0.2-0.2,0.2-0.3c0.1-0.2,0.3-0.4,0.5-0.6c0.1-0.1,0.1-0.2,0.2-0.2c0.2-0.3,0.4-0.5,0.7-0.8
			c0-0.1,0.1-0.1,0.1-0.2c0.2-0.2,0.4-0.4,0.5-0.6c0.1-0.1,0.2-0.2,0.2-0.3c0.2-0.2,0.3-0.3,0.5-0.5c0.1-0.1,0.2-0.2,0.3-0.3
			c0.2-0.2,0.3-0.3,0.5-0.5c0.1-0.1,0.2-0.2,0.3-0.3c0.2-0.2,0.4-0.4,0.6-0.6c0.1,0,0.1-0.1,0.2-0.1c0.3-0.2,0.5-0.5,0.8-0.7
			c0.1-0.1,0.1-0.1,0.2-0.2c0.2-0.2,0.4-0.3,0.6-0.5c0.1-0.1,0.2-0.2,0.3-0.2c0.2-0.1,0.4-0.3,0.6-0.4c0.1-0.1,0.2-0.2,0.3-0.2
			c0.2-0.2,0.4-0.3,0.6-0.4c0.1-0.1,0.2-0.1,0.3-0.2c0.3-0.2,0.6-0.4,0.9-0.6c6.8-4.7,14.7-7.1,23-7.1c0.4,0,0.7,0,1.1,0
			c0.1,0,0.2,0,0.3,0c0.2,0,0.5,0,0.7,0c0.1,0,0.3,0,0.4,0c0.2,0,0.4,0,0.7,0c0.1,0,0.3,0,0.4,0c0.2,0,0.4,0,0.7,0.1
			c0.1,0,0.3,0,0.4,0c0.2,0,0.5,0.1,0.7,0.1c0.1,0,0.2,0,0.4,0c0.3,0.1,0.7,0.1,1,0.2c0,0,0,0,0,0c0.3,0.1,0.7,0.1,1,0.2
			c-0.1-1.6-0.2-3-0.2-4.5c0-13.5,4-26.4,11.5-37.5c-15.1-6.5-31.2-9.7-47.8-9.7c-29.1,0-57.1,10.3-79.2,29.2c0.9,0,1.7-0.1,2.4-0.1
			c16.6,0,32.6,6.1,45,17.1c10.7,9.6,18,22.1,20.9,35.9C343.5-392.2,343.5-392.3,343.6-392.4z"/>
		<path d="M286.7-444.5c20.4-14.2,44.7-22,69.8-22c14.6,0,28.7,2.5,42.2,7.5c1-1.9,2.2-3.7,3.4-5.5c-15.1-6.5-31.2-9.7-47.8-9.7
			c-29.1,0-57.1,10.3-79.2,29.2c0.9,0,1.7-0.1,2.4-0.1C280.7-445.1,283.7-444.9,286.7-444.5z"/>
		<path class="st5" d="M343.3-392.8c0,0.2,0.1,0.4,0.2,0.7c0,0,0-0.1,0-0.1C343.5-392.4,343.4-392.6,343.3-392.8z"/>
		<path class="st1" d="M356.6-310c0-2.4,0.5-4.6,1.4-6.8c-22,14.3-41.4,18.1-43.1,18.5c9.5,7.6,25.2,11,36.2,11
			c7.6,0,15.3-1.5,22.6-4.3C364.2-292.3,356.6-300.3,356.6-310z"/>
		<path class="st3" d="M414.2-360.1c-1.2-8.7-4-16.8-8.7-24.3v0c0-0.3-0.2-0.6-0.4-0.8c-0.1-0.1-0.1-0.3-0.2-0.4c0,0,0,0,0,0
			c0,0,0,0,0,0c-0.8-1.4-1.9-2.9-2.9-4.2c-0.6,0.3-1.2,0.4-1.8,0.4c-2.4,0-4.3-1.9-4.3-4.3c0-0.5,0.1-1.1,0.3-1.6
			c-3.5-1.9-7.7-3-12.1-3c-3.1,0-6,0.6-8.9,1.8c-8.6,3.6-14.1,11.9-14.1,21.2c0,6.5,2.8,12.7,7.6,17.1c2.2,2,4.7,3.9,7.5,4.6h0
			c4.6,2.1,9.5,1.8,14.3,0.5c0.3-0.1,0.6-0.3,0.9-0.4c0.4-0.1,0.8,0,1.1,0.3c0.3,0.3,0.3,0.8,0,1.1c-2.1,3.2-4.2,6.3-6.6,9.2
			c-11.6,13.9-22,22.1-23.4,23.1c-0.1,0.1-3.4,2.2-3.8,9.6c-0.5,9,7.3,16.4,16.4,16.4c1.6,0,3.3-0.2,4.8-0.7c0,0,0,0,0.1,0
			c3-1.4,5.1-2.7,6.3-3.5c18.1-12.1,28.8-32.1,28.8-53.3C414.9-354.2,414.6-357.1,414.2-360.1z"/>
		<path class="st4" d="M429-399.6c-3.4,0-6.8,0.3-10.2,0.8c-3,0.5-6,1.2-8.9,2.1c-1.9,0.6-3.7,1.3-5.6,2.1c0.1,0.3,0.1,0.6,0.1,0.9
			c0,1-0.3,1.9-0.9,2.6c0.8,1.1,1.8,2.4,2.6,3.6c0.2-0.1,0.4-0.2,0.6-0.3c4.6-2.3,9.4-4,14.4-5.2c4.9-1.1,9.9-1.7,14.8-1.7
			c11.3,0,22.2,2.9,32,8.3C456.8-395,443.2-399.6,429-399.6z"/>
		<path class="st7" d="M410.5-409.7c-4.1-4.2-9.2-7.5-14.7-9.4c-1.2-0.4-2.5-0.8-4.1-1.2c-2.9-0.7-5.9-1-8.7-1
			c-7.8,0-15.4,2.3-21.8,6.8c-0.3,0.2-0.6,0.4-0.8,0.6c-0.1,0.1-0.2,0.1-0.3,0.2c-0.2,0.1-0.4,0.3-0.6,0.4c-0.1,0.1-0.2,0.1-0.3,0.2
			c-0.2,0.1-0.4,0.3-0.6,0.4c-0.1,0.1-0.2,0.1-0.3,0.2c-0.2,0.2-0.4,0.3-0.6,0.5c-0.1,0.1-0.1,0.1-0.2,0.2c-0.2,0.2-0.5,0.4-0.7,0.6
			c0,0,0,0-0.1,0.1c-6,5.5-10.1,12.8-11.6,20.8c6.6-9.6,17.5-15.4,29.4-15.4c8.5,0,16.8,3.1,23.2,8.5c0.7-0.4,1.5-0.7,2.3-0.7
			c1.3,0,2.5,0.6,3.3,1.5c2-0.8,4-1.6,5.9-2.2c0.6-0.2,1.2-0.4,1.7-0.5c0.1,0,0.2-0.1,0.3-0.1c0.6-0.2,1.1-0.3,1.7-0.4
			c0.1,0,0.2-0.1,0.3-0.1c0.6-0.1,1.2-0.3,1.7-0.4c0.1,0,0.1,0,0.2,0c0.6-0.1,1.1-0.2,1.7-0.3c0,0,0.1,0,0.1,0
			C415.4-403.9,413.1-407,410.5-409.7z"/>
		<path class="st8" d="M367.3-322.9"/>
		<path d="M257.3-300.5c0,0-9.5,0.7-22.3,0c0,0,13,6.8,16.5,29.6c0,0,40-20.9,84.3-16.5c0,0-13.7-2.2-22.7-10.3
			C313.1-297.7,281-292.6,257.3-300.5z"/>
	</g>
	<g>
		<path d="M654.3-350.7c-4.7,1-9.4,0.2-13.9-0.8h0c-3-1-5.7-2.9-8.1-5.1c-5.2-4.7-8.2-11.6-8.2-18.6c0-10.1,6-19.2,15.3-23.1
			c3.1-1.3,6.3-1.9,9.6-1.9c2.7,0,5.3,0.4,7.7,1c-5.1-3-11-4.6-17.1-4.6c-12.8,0-24.3,7.1-30.1,18.4c-3.6,25-19.3,40.4-33.1,54
			c-4.9,4.8-10.2,9.2-15.8,13.2c-3,2.1-6.1,4.1-9.3,5.9c-8.2,4.7-16.9,8.5-26,11.2C612.1-283.3,654.1-350.5,654.3-350.7z"/>
		<path d="M608.6-392.4c0-0.1,0.1-0.2,0.1-0.4c0.1-0.2,0.1-0.5,0.2-0.7c0-0.1,0.1-0.2,0.1-0.4c0.1-0.2,0.1-0.5,0.2-0.7
			c0-0.1,0.1-0.2,0.1-0.3c0.1-0.3,0.2-0.7,0.3-1c0-0.1,0-0.1,0.1-0.2c0.1-0.3,0.2-0.5,0.3-0.8c0-0.1,0.1-0.2,0.1-0.3
			c0.1-0.2,0.2-0.4,0.2-0.6c0-0.1,0.1-0.2,0.1-0.4c0.1-0.2,0.2-0.4,0.3-0.6c0-0.1,0.1-0.2,0.1-0.3c0.1-0.2,0.2-0.5,0.3-0.7
			c0-0.1,0.1-0.2,0.1-0.2c0.1-0.3,0.3-0.6,0.4-0.9c0-0.1,0.1-0.2,0.1-0.3c0.1-0.2,0.2-0.4,0.3-0.6c0.1-0.1,0.1-0.2,0.2-0.3
			c0.1-0.2,0.2-0.4,0.3-0.6c0.1-0.1,0.1-0.2,0.2-0.3c0.1-0.2,0.2-0.4,0.3-0.6c0.1-0.1,0.1-0.2,0.2-0.3c0.2-0.3,0.3-0.5,0.5-0.8
			c0,0,0-0.1,0.1-0.1c0.2-0.3,0.4-0.6,0.6-0.8c0.1-0.1,0.1-0.2,0.2-0.3c0.1-0.2,0.3-0.4,0.4-0.6c0.1-0.1,0.2-0.2,0.2-0.3
			c0.1-0.2,0.3-0.4,0.4-0.5c0.1-0.1,0.2-0.2,0.2-0.3c0.1-0.2,0.3-0.4,0.5-0.6c0.1-0.1,0.1-0.2,0.2-0.2c0.2-0.3,0.4-0.5,0.7-0.8
			c0-0.1,0.1-0.1,0.1-0.2c0.2-0.2,0.4-0.4,0.5-0.6c0.1-0.1,0.2-0.2,0.2-0.3c0.2-0.2,0.3-0.3,0.5-0.5c0.1-0.1,0.2-0.2,0.3-0.3
			c0.2-0.2,0.3-0.3,0.5-0.5c0.1-0.1,0.2-0.2,0.3-0.3c0.2-0.2,0.4-0.4,0.6-0.6c0.1,0,0.1-0.1,0.2-0.1c0.3-0.2,0.5-0.5,0.8-0.7
			c0.1-0.1,0.1-0.1,0.2-0.2c0.2-0.2,0.4-0.3,0.6-0.5c0.1-0.1,0.2-0.2,0.3-0.2c0.2-0.1,0.4-0.3,0.6-0.4c0.1-0.1,0.2-0.2,0.3-0.2
			c0.2-0.2,0.4-0.3,0.6-0.4c0.1-0.1,0.2-0.1,0.3-0.2c0.3-0.2,0.6-0.4,0.9-0.6c6.8-4.7,14.7-7.1,23-7.1c0.4,0,0.7,0,1.1,0
			c0.1,0,0.2,0,0.3,0c0.2,0,0.5,0,0.7,0c0.1,0,0.3,0,0.4,0c0.2,0,0.4,0,0.7,0c0.1,0,0.3,0,0.4,0c0.2,0,0.4,0,0.7,0.1
			c0.1,0,0.3,0,0.4,0c0.2,0,0.5,0.1,0.7,0.1c0.1,0,0.2,0,0.4,0c0.3,0.1,0.7,0.1,1,0.2c0,0,0,0,0,0c0.3,0.1,0.7,0.1,1,0.2
			c-0.1-1.6-0.2-3-0.2-4.5c0-13.5,4-26.4,11.5-37.5c-15.1-6.5-31.2-9.7-47.8-9.7c-29.1,0-57.1,10.3-79.2,29.2c0.9,0,1.7-0.1,2.4-0.1
			c16.6,0,32.6,6.1,45,17.1c10.7,9.6,18,22.1,20.9,35.9C608.5-392.2,608.5-392.3,608.6-392.4z"/>
		<path d="M551.7-444.5c20.4-14.2,44.7-22,69.8-22c14.6,0,28.7,2.5,42.2,7.5c1-1.9,2.2-3.7,3.4-5.5c-15.1-6.5-31.2-9.7-47.8-9.7
			c-29.1,0-57.1,10.3-79.2,29.2c0.9,0,1.7-0.1,2.4-0.1C545.7-445.1,548.7-444.9,551.7-444.5z"/>
		<path d="M608.3-392.8c0,0.2,0.1,0.4,0.2,0.7c0,0,0-0.1,0-0.1C608.5-392.4,608.4-392.6,608.3-392.8z"/>
		<path d="M621.6-310c0-2.4,0.5-4.6,1.4-6.8c-22,14.3-41.4,18.1-43.1,18.5c9.5,7.6,25.2,11,36.2,11c7.6,0,15.3-1.5,22.6-4.3
			C629.2-292.3,621.6-300.3,621.6-310z"/>
		<path d="M679.2-360.1c-1.2-8.7-4-16.8-8.7-24.3v0c0-0.3-0.2-0.6-0.4-0.8c-0.1-0.1-0.1-0.3-0.2-0.4c0,0,0,0,0,0c0,0,0,0,0,0
			c-0.8-1.4-1.9-2.9-2.9-4.2c-0.8,0.4-1.7,0.5-2.7,0.3c-0.4-1.5-1.7-2.6-3.2-2.9c-0.3-1-0.2-2,0.1-2.8c-3.5-1.9-7.7-3-12.1-3
			c-3.1,0-6,0.6-8.9,1.8c-8.6,3.6-14.1,11.9-14.1,21.2c0,6.5,2.8,12.7,7.6,17.1c2.2,2,4.7,3.9,7.5,4.6h0c4.6,2.1,9.5,1.8,14.3,0.5
			c0.3-0.1,0.6-0.3,0.9-0.4c0.4-0.1,0.8,0,1.1,0.3c0.3,0.3,0.3,0.8,0,1.1c-2.1,3.2-4.2,6.3-6.6,9.2c-11.6,13.9-22,22.1-23.4,23.1
			c-0.1,0.1-3.4,2.2-3.8,9.6c-0.5,9,7.3,16.4,16.4,16.4c1.6,0,3.3-0.2,4.8-0.7c0,0,0,0,0,0c3.1-1.5,5.2-2.8,6.4-3.6
			c18.1-12.1,28.8-32.1,28.8-53.3C679.9-354.2,679.6-357.1,679.2-360.1z"/>
		<path d="M694-399.6c-3.4,0-6.8,0.3-10.2,0.8c-3,0.5-6,1.2-8.9,2.1c-1.9,0.6-3.7,1.3-5.6,2.1c0.1,0.3,0.1,0.6,0.1,0.9
			c0,1-0.3,1.9-0.9,2.6c0.8,1.1,1.8,2.4,2.6,3.6c0.2-0.1,0.4-0.2,0.6-0.3c4.6-2.3,9.4-4,14.4-5.2c4.9-1.1,9.9-1.7,14.8-1.7
			c11.3,0,22.2,2.9,32,8.3C721.8-395,708.2-399.6,694-399.6z"/>
		<path d="M675.5-409.7c-4.1-4.2-9.2-7.5-14.7-9.4c-1.2-0.4-2.5-0.8-4.1-1.2c-2.9-0.7-5.9-1-8.7-1c-7.8,0-15.4,2.3-21.8,6.8
			c-0.3,0.2-0.6,0.4-0.8,0.6c-0.1,0.1-0.2,0.1-0.3,0.2c-0.2,0.1-0.4,0.3-0.6,0.4c-0.1,0.1-0.2,0.1-0.3,0.2c-0.2,0.1-0.4,0.3-0.6,0.4
			c-0.1,0.1-0.2,0.1-0.3,0.2c-0.2,0.2-0.4,0.3-0.6,0.5c-0.1,0.1-0.1,0.1-0.2,0.2c-0.2,0.2-0.5,0.4-0.7,0.6c0,0,0,0-0.1,0.1
			c-6,5.5-10.1,12.8-11.6,20.8c6.6-9.6,17.5-15.4,29.4-15.4c8.5,0,16.8,3.1,23.2,8.5c0.7-0.4,1.5-0.7,2.3-0.7c1.3,0,2.5,0.6,3.3,1.5
			c2-0.8,4-1.6,5.9-2.2c0.6-0.2,1.2-0.4,1.7-0.5c0.1,0,0.2-0.1,0.3-0.1c0.6-0.2,1.1-0.3,1.7-0.4c0.1,0,0.2-0.1,0.3-0.1
			c0.6-0.1,1.2-0.3,1.7-0.4c0.1,0,0.1,0,0.2,0c0.6-0.1,1.2-0.3,1.8-0.4c0,0,0,0,0,0C680.4-403.9,678.1-407,675.5-409.7z"/>
		<path d="M632.3-322.9"/>
		<path d="M522.3-300.5c0,0-9.5,0.7-22.3,0c0,0,13,6.8,16.5,29.6c0,0,40-20.9,84.3-16.5c0,0-13.7-2.2-22.7-10.3
			C578.1-297.7,546-292.6,522.3-300.5z"/>
	</g>
	<g>
		<path class="st9" d="M409.8,328.8c-12.3,2.7-24.9,0.5-36.8-2.2h0c-7.9-2.6-15.1-7.7-21.4-13.4c-13.8-12.5-21.8-30.5-21.8-49.1
			c0-26.7,15.9-50.7,40.5-61c8.1-3.4,16.6-5.1,25.4-5.1c7,0,13.9,0.9,20.4,2.8c-13.6-7.9-29.2-12.3-45.2-12.3
			c-33.7,0-64.2,18.7-79.5,48.8c-9.6,66-51,106.7-87.5,142.7c-12.9,12.7-26.9,24.4-41.7,34.8c-7.8,5.5-16.1,10.8-24.6,15.7
			c-21.7,12.5-44.8,22.5-68.6,29.7C298.4,507,409.4,329.4,409.8,328.8z"/>
		<path class="st9" d="M289,218.8c0.1-0.3,0.2-0.6,0.2-0.9c0.1-0.6,0.3-1.2,0.5-1.8c0.1-0.3,0.2-0.6,0.3-0.9
			c0.2-0.6,0.4-1.3,0.6-1.9c0.1-0.2,0.1-0.5,0.2-0.7c0.3-0.9,0.5-1.7,0.8-2.6c0.1-0.2,0.1-0.3,0.2-0.5c0.2-0.7,0.5-1.4,0.7-2.1
			c0.1-0.3,0.2-0.6,0.3-0.9c0.2-0.6,0.4-1.1,0.6-1.7c0.1-0.3,0.3-0.6,0.4-1c0.2-0.6,0.5-1.1,0.7-1.7c0.1-0.3,0.3-0.6,0.4-0.9
			c0.3-0.6,0.6-1.3,0.9-1.9c0.1-0.2,0.2-0.4,0.3-0.6c0.4-0.8,0.8-1.6,1.2-2.4c0.1-0.2,0.3-0.5,0.4-0.7c0.3-0.6,0.6-1.1,0.9-1.7
			c0.2-0.3,0.3-0.6,0.5-0.9c0.3-0.5,0.6-1,0.8-1.5c0.2-0.3,0.3-0.6,0.5-0.9c0.3-0.5,0.6-1,0.9-1.5c0.2-0.3,0.3-0.5,0.5-0.8
			c0.4-0.7,0.9-1.4,1.3-2.1c0.1-0.1,0.1-0.2,0.2-0.3c0.5-0.7,1-1.5,1.5-2.2c0.2-0.3,0.4-0.5,0.5-0.8c0.3-0.5,0.7-1,1.1-1.5
			c0.2-0.3,0.4-0.6,0.6-0.9c0.3-0.5,0.7-0.9,1-1.4c0.2-0.3,0.4-0.5,0.6-0.8c0.4-0.5,0.8-1,1.2-1.5c0.2-0.2,0.3-0.4,0.5-0.7
			c0.6-0.7,1.2-1.4,1.8-2.1c0.1-0.1,0.3-0.3,0.4-0.4c0.5-0.5,1-1.1,1.4-1.6c0.2-0.2,0.4-0.5,0.7-0.7c0.4-0.4,0.8-0.9,1.3-1.3
			c0.2-0.2,0.5-0.5,0.7-0.7c0.4-0.4,0.9-0.9,1.3-1.3c0.2-0.2,0.5-0.5,0.7-0.7c0.5-0.5,1.1-1,1.6-1.5c0.1-0.1,0.3-0.3,0.4-0.4
			c0.7-0.6,1.4-1.2,2.1-1.9c0.2-0.2,0.4-0.3,0.6-0.5c0.5-0.4,1-0.9,1.6-1.3c0.3-0.2,0.5-0.4,0.8-0.6c0.5-0.4,1-0.8,1.5-1.2
			c0.3-0.2,0.5-0.4,0.8-0.6c0.5-0.4,1-0.8,1.6-1.2c0.2-0.2,0.5-0.3,0.7-0.5c0.8-0.6,1.5-1.1,2.3-1.6c17.9-12.4,38.9-18.9,60.7-18.9
			c0.9,0,1.9,0,2.8,0c0.3,0,0.6,0,0.9,0c0.6,0,1.3,0,1.9,0.1c0.4,0,0.7,0,1.1,0.1c0.6,0,1.2,0.1,1.8,0.1c0.4,0,0.7,0.1,1.1,0.1
			c0.6,0.1,1.2,0.1,1.8,0.2c0.4,0,0.7,0.1,1.1,0.1c0.6,0.1,1.3,0.2,1.9,0.3c0.3,0,0.6,0.1,0.9,0.1c0.9,0.1,1.8,0.3,2.7,0.4
			c0,0,0.1,0,0.1,0c0.9,0.2,1.7,0.3,2.6,0.5c-0.3-4.2-0.4-8.1-0.4-11.8c0-35.6,10.5-69.8,30.5-99.1C403.7,11,361.2,2.3,317.4,2.3
			c-76.9,0-150.9,27.3-209.2,77.1c2.2-0.1,4.4-0.1,6.5-0.1c43.9,0,86.2,16.1,119,45.2c28.4,25.2,47.6,58.4,55.2,94.8
			C288.9,219.1,288.9,218.9,289,218.8z"/>
		<path class="st9" d="M138.7,81c53.9-37.7,118.1-58.1,184.5-58.1c38.5,0,75.9,6.7,111.6,19.9c2.7-5,5.7-9.9,8.9-14.6
			C403.7,11,361.2,2.3,317.4,2.3c-76.9,0-150.9,27.3-209.2,77.1c2.2-0.1,4.4-0.1,6.5-0.1C122.8,79.3,130.8,79.9,138.7,81z"/>
		<path class="st9" d="M288.4,217.6c0.1,0.6,0.3,1.2,0.4,1.7c0-0.1,0.1-0.3,0.1-0.4C288.8,218.5,288.6,218.1,288.4,217.6z"/>
		<path class="st9" d="M323.5,436.4c0-6.4,1.3-12.2,3.7-18c-58.1,37.7-109.3,47.8-113.8,48.8c25.2,20,66.5,29,95.6,29
			c20,0,40.4-4,59.7-11.4C343.5,483.1,323.5,462,323.5,436.4z"/>
		<path class="st9" d="M475.6,304c-3.2-22.9-10.4-44.5-23.1-64.2v0c0-0.8-0.6-1.5-1.1-2.2c-0.2-0.4-0.3-0.8-0.6-1.1c0,0,0.1,0,0.1,0
			c0,0,0,0,0,0c-2.2-3.6-5.1-7.6-7.8-11.1c-2.1,1-4.6,1.4-7.2,0.9c-1.2-3.9-4.5-6.9-8.4-7.7c-0.8-2.7-0.6-5.2,0.3-7.4
			c-9.2-5.1-20.5-7.9-32.1-7.9c-8.1,0-16,1.6-23.4,4.7c-22.7,9.5-37.3,31.5-37.3,56.1c0,17.1,7.3,33.5,20.1,45.1
			c5.8,5.2,12.4,10.3,19.7,12.1h0c12.2,5.4,25.1,4.8,37.7,1.2c0.9-0.2,1.7-0.7,2.5-0.9c1.1-0.4,2.2,0,2.9,0.9c0.7,0.9,0.7,2.1,0.1,3
			c-5.5,8.4-11.2,16.7-17.5,24.3c-30.6,36.9-58,58.4-61.8,61.2c-0.1,0.2-8.9,5.7-10,25.4c-1.3,23.8,19.4,43.2,43.2,43.2
			c4.3,0,8.7-0.6,12.6-1.8c0,0,0,0,0,0c8.1-3.9,13.6-7.3,16.9-9.5c47.7-32,76-84.7,76-141C477.4,319.7,476.7,311.9,475.6,304z"/>
		<path class="st9" d="M514.7,199.5c-8.9,0-18,0.7-27,2.2c-8,1.3-15.9,3.2-23.5,5.5c-4.9,1.5-9.9,3.4-14.9,5.5
			c0.2,0.8,0.3,1.6,0.3,2.5c0,2.6-0.9,4.9-2.3,6.8c2.2,2.9,4.7,6.2,6.9,9.6c0.5-0.3,1.1-0.6,1.6-0.8c12.1-6,24.9-10.6,38.2-13.7
			c12.9-3,26.1-4.5,39.1-4.5c29.9,0,58.8,7.5,84.5,21.9C588.2,211.9,552.2,199.5,514.7,199.5z"/>
		<path class="st9" d="M465.8,172.9c-10.9-11.1-24.3-19.8-38.9-24.9c-3.2-1.1-6.6-2.1-10.9-3.1c-7.8-1.8-15.5-2.7-23-2.7
			c-20.7,0-40.7,6.2-57.7,18c-0.8,0.5-1.5,1-2.2,1.6c-0.2,0.2-0.4,0.3-0.7,0.5c-0.5,0.4-1,0.8-1.5,1.2c-0.2,0.2-0.5,0.4-0.7,0.6
			c-0.5,0.4-1,0.8-1.5,1.2c-0.2,0.2-0.4,0.4-0.7,0.5c-0.5,0.4-1,0.9-1.5,1.3c-0.2,0.1-0.3,0.3-0.5,0.4c-0.6,0.5-1.2,1.1-1.8,1.6
			c-0.1,0.1-0.1,0.1-0.2,0.2c-15.9,14.6-26.6,33.8-30.8,55c17.5-25.4,46.3-40.8,77.8-40.8c22.5,0,44.3,8.1,61.3,22.5
			c1.8-1.1,3.9-1.8,6.1-1.8c3.5,0,6.6,1.6,8.7,4.1c5.2-2.2,10.5-4.2,15.6-5.8c1.5-0.5,3.1-0.9,4.6-1.4c0.2-0.1,0.5-0.1,0.7-0.2
			c1.5-0.4,3-0.8,4.5-1.2c0.3-0.1,0.6-0.1,0.9-0.2c1.5-0.4,3.1-0.7,4.6-1.1c0.2,0,0.4-0.1,0.6-0.1c1.6-0.3,3.2-0.7,4.9-1
			c0,0,0,0,0,0C478.8,188.3,472.9,180.1,465.8,172.9z"/>
		<path class="st9" d="M351.7,402.3"/>
		<path class="st9" d="M60.9,461.5c0,0-25,1.8-58.8,0c0,0,34.3,18,43.6,78.3c0,0,105.7-55.3,222.8-43.6c0,0-36.3-5.8-60-27.2
			C208.5,468.9,123.7,482.4,60.9,461.5z"/>
	</g>
	<g>
		<g>
			<path class="st2" d="M1287.3-496.7c-4.7,1-9.4,0.2-13.9-0.8h0c-3-1-5.7-2.9-8.1-5.1c-5.2-4.7-8.2-11.6-8.2-18.6
				c0-10.1,6-19.2,15.3-23.1c3.1-1.3,6.3-1.9,9.6-1.9c2.7,0,5.3,0.4,7.7,1c-5.1-3-11-4.6-17.1-4.6c-12.8,0-24.3,7.1-30.1,18.4
				c-3.6,25-19.3,40.4-33.1,54c-4.9,4.8-10.2,9.2-15.8,13.2c-3,2.1-6.1,4.1-9.3,5.9c-8.2,4.7-16.9,8.5-26,11.2
				C1245.1-429.3,1287.1-496.5,1287.3-496.7z"/>
			<path class="st6" d="M1241.6-538.4c0-0.1,0.1-0.2,0.1-0.4c0.1-0.2,0.1-0.5,0.2-0.7c0-0.1,0.1-0.2,0.1-0.4
				c0.1-0.2,0.1-0.5,0.2-0.7c0-0.1,0.1-0.2,0.1-0.3c0.1-0.3,0.2-0.7,0.3-1c0-0.1,0-0.1,0.1-0.2c0.1-0.3,0.2-0.5,0.3-0.8
				c0-0.1,0.1-0.2,0.1-0.3c0.1-0.2,0.2-0.4,0.2-0.6c0-0.1,0.1-0.2,0.1-0.4c0.1-0.2,0.2-0.4,0.3-0.6c0-0.1,0.1-0.2,0.1-0.3
				c0.1-0.2,0.2-0.5,0.3-0.7c0-0.1,0.1-0.2,0.1-0.2c0.1-0.3,0.3-0.6,0.4-0.9c0-0.1,0.1-0.2,0.1-0.3c0.1-0.2,0.2-0.4,0.3-0.6
				c0.1-0.1,0.1-0.2,0.2-0.3c0.1-0.2,0.2-0.4,0.3-0.6c0.1-0.1,0.1-0.2,0.2-0.3c0.1-0.2,0.2-0.4,0.3-0.6c0.1-0.1,0.1-0.2,0.2-0.3
				c0.2-0.3,0.3-0.5,0.5-0.8c0,0,0-0.1,0.1-0.1c0.2-0.3,0.4-0.6,0.6-0.8c0.1-0.1,0.1-0.2,0.2-0.3c0.1-0.2,0.3-0.4,0.4-0.6
				c0.1-0.1,0.2-0.2,0.2-0.3c0.1-0.2,0.3-0.4,0.4-0.5c0.1-0.1,0.2-0.2,0.2-0.3c0.1-0.2,0.3-0.4,0.5-0.6c0.1-0.1,0.1-0.2,0.2-0.2
				c0.2-0.3,0.4-0.5,0.7-0.8c0-0.1,0.1-0.1,0.1-0.2c0.2-0.2,0.4-0.4,0.5-0.6c0.1-0.1,0.2-0.2,0.2-0.3c0.2-0.2,0.3-0.3,0.5-0.5
				c0.1-0.1,0.2-0.2,0.3-0.3c0.2-0.2,0.3-0.3,0.5-0.5c0.1-0.1,0.2-0.2,0.3-0.3c0.2-0.2,0.4-0.4,0.6-0.6c0.1,0,0.1-0.1,0.2-0.1
				c0.3-0.2,0.5-0.5,0.8-0.7c0.1-0.1,0.1-0.1,0.2-0.2c0.2-0.2,0.4-0.3,0.6-0.5c0.1-0.1,0.2-0.2,0.3-0.2c0.2-0.1,0.4-0.3,0.6-0.4
				c0.1-0.1,0.2-0.2,0.3-0.2c0.2-0.2,0.4-0.3,0.6-0.4c0.1-0.1,0.2-0.1,0.3-0.2c0.3-0.2,0.6-0.4,0.9-0.6c6.8-4.7,14.7-7.1,23-7.1
				c0.4,0,0.7,0,1.1,0c0.1,0,0.2,0,0.3,0c0.2,0,0.5,0,0.7,0c0.1,0,0.3,0,0.4,0c0.2,0,0.4,0,0.7,0c0.1,0,0.3,0,0.4,0
				c0.2,0,0.4,0,0.7,0.1c0.1,0,0.3,0,0.4,0c0.2,0,0.5,0.1,0.7,0.1c0.1,0,0.2,0,0.4,0c0.3,0.1,0.7,0.1,1,0.2c0,0,0,0,0,0
				c0.3,0.1,0.7,0.1,1,0.2c-0.1-1.6-0.2-3-0.2-4.5c0-13.5,4-26.4,11.5-37.5c-15.1-6.5-31.2-9.7-47.8-9.7
				c-29.1,0-57.1,10.3-79.2,29.2c0.9,0,1.7-0.1,2.4-0.1c16.6,0,32.6,6.1,45,17.1c10.7,9.6,18,22.1,20.9,35.9
				C1241.5-538.2,1241.5-538.3,1241.6-538.4z"/>
			<path d="M1184.7-590.5c20.4-14.2,44.7-22,69.8-22c14.6,0,28.7,2.5,42.2,7.5c1-1.9,2.2-3.7,3.4-5.5c-15.1-6.5-31.2-9.7-47.8-9.7
				c-29.1,0-57.1,10.3-79.2,29.2c0.9,0,1.7-0.1,2.4-0.1C1178.7-591.1,1181.7-590.9,1184.7-590.5z"/>
			<path class="st5" d="M1241.3-538.8c0,0.2,0.1,0.4,0.2,0.7c0,0,0-0.1,0-0.1C1241.5-538.4,1241.4-538.6,1241.3-538.8z"/>
			<path class="st1" d="M1254.6-456c0-2.4,0.5-4.6,1.4-6.8c-22,14.3-41.4,18.1-43.1,18.5c9.5,7.6,25.2,11,36.2,11
				c7.6,0,15.3-1.5,22.6-4.3C1262.2-438.3,1254.6-446.3,1254.6-456z"/>
			<path class="st3" d="M1312.2-506.1c-1.2-8.7-4-16.8-8.7-24.3v0c0-0.3-0.2-0.6-0.4-0.8c-0.1-0.1-0.1-0.3-0.2-0.4c0,0,0,0,0,0
				c0,0,0,0,0,0c-0.8-1.4-1.9-2.9-2.9-4.2c-0.6,0.3-1.2,0.4-1.8,0.4c-2.4,0-4.3-1.9-4.3-4.3c0-0.5,0.1-1.1,0.3-1.6
				c-3.5-1.9-7.7-3-12.1-3c-3.1,0-6,0.6-8.9,1.8c-8.6,3.6-14.1,11.9-14.1,21.2c0,6.5,2.8,12.7,7.6,17.1c2.2,2,4.7,3.9,7.5,4.6h0
				c4.6,2.1,9.5,1.8,14.3,0.5c0.3-0.1,0.6-0.3,0.9-0.4c0.4-0.1,0.8,0,1.1,0.3c0.3,0.3,0.3,0.8,0,1.1c-2.1,3.2-4.2,6.3-6.6,9.2
				c-11.6,13.9-22,22.1-23.4,23.1c-0.1,0.1-3.4,2.2-3.8,9.6c-0.5,9,7.3,16.4,16.4,16.4c1.6,0,3.3-0.2,4.8-0.7c0,0,0,0,0.1,0
				c3-1.4,5.1-2.7,6.3-3.5c18.1-12.1,28.8-32.1,28.8-53.3C1312.9-500.2,1312.6-503.1,1312.2-506.1z"/>
			<path class="st4" d="M1327-545.6c-3.4,0-6.8,0.3-10.2,0.8c-3,0.5-6,1.2-8.9,2.1c-1.9,0.6-3.7,1.3-5.6,2.1
				c0.1,0.3,0.1,0.6,0.1,0.9c0,1-0.3,1.9-0.9,2.6c0.8,1.1,1.8,2.4,2.6,3.6c0.2-0.1,0.4-0.2,0.6-0.3c4.6-2.3,9.4-4,14.4-5.2
				c4.9-1.1,9.9-1.7,14.8-1.7c11.3,0,22.2,2.9,32,8.3C1354.8-541,1341.2-545.6,1327-545.6z"/>
			<path class="st7" d="M1308.5-555.7c-4.1-4.2-9.2-7.5-14.7-9.4c-1.2-0.4-2.5-0.8-4.1-1.2c-2.9-0.7-5.9-1-8.7-1
				c-7.8,0-15.4,2.3-21.8,6.8c-0.3,0.2-0.6,0.4-0.8,0.6c-0.1,0.1-0.2,0.1-0.3,0.2c-0.2,0.1-0.4,0.3-0.6,0.4
				c-0.1,0.1-0.2,0.1-0.3,0.2c-0.2,0.1-0.4,0.3-0.6,0.4c-0.1,0.1-0.2,0.1-0.3,0.2c-0.2,0.2-0.4,0.3-0.6,0.5
				c-0.1,0.1-0.1,0.1-0.2,0.2c-0.2,0.2-0.5,0.4-0.7,0.6c0,0,0,0-0.1,0.1c-6,5.5-10.1,12.8-11.6,20.8c6.6-9.6,17.5-15.4,29.4-15.4
				c8.5,0,16.8,3.1,23.2,8.5c0.7-0.4,1.5-0.7,2.3-0.7c1.3,0,2.5,0.6,3.3,1.5c2-0.8,4-1.6,5.9-2.2c0.6-0.2,1.2-0.4,1.7-0.5
				c0.1,0,0.2-0.1,0.3-0.1c0.6-0.2,1.1-0.3,1.7-0.4c0.1,0,0.2-0.1,0.3-0.1c0.6-0.1,1.2-0.3,1.7-0.4c0.1,0,0.1,0,0.2,0
				c0.6-0.1,1.1-0.2,1.7-0.3c0,0,0.1,0,0.1,0C1313.4-549.9,1311.1-553,1308.5-555.7z"/>
			<path class="st8" d="M1265.3-468.9"/>
			<path d="M1155.3-446.5c0,0-9.5,0.7-22.3,0c0,0,13,6.8,16.5,29.6c0,0,40-20.9,84.3-16.5c0,0-13.7-2.2-22.7-10.3
				C1211.1-443.7,1179-438.6,1155.3-446.5z"/>
		</g>
		<g>
			<path d="M1418.2-330.4v-0.5c9.7-0.3,14.7-0.7,19.2-1.8c6.7-2.3,7.9-5.6,10.1-13.6h0.5l-0.6,15.8H1418.2z"/>
			<path d="M1121.3-391.5c-4.5,0-6.8,1.6-6.8,4.8v51c0,3.2,1.7,4.8,6.8,4.8v0.5h-22.4v-0.5c5.1,0,6.8-1.6,6.8-4.8v-51
				c0-3.3-2.3-4.9-6.8-4.8v-0.5h22.4V-391.5z"/>
			<path d="M1160.5-330c4.1-0.5,8.3-2.7,12.4-7.3c4.1-4.7,7-13.5,7-24.4c0-11.1-2.8-19.6-7.1-24c-4.1-4.3-8.1-6.3-12.3-6.7v-0.5
				c6.8,0.1,13.8,2.9,19.6,7.9c5.8,5,9.9,13.5,9.9,23.3c0,9.9-4.1,18.6-10,24c-5.8,5.2-12.9,8.2-19.5,8.2V-330z"/>
			<path d="M1235.4-330c4.1-0.5,8.3-2.7,12.4-7.3c4.1-4.7,7-13.5,7-24.4c0-11.1-2.8-19.6-7.1-24c-4.1-4.3-8.1-6.3-12.3-6.7v-0.5
				c6.8,0.1,13.8,2.9,19.6,7.9c5.8,5,9.9,13.5,9.9,23.3c0,9.9-4.1,18.6-10,24c-5.8,5.2-12.9,8.2-19.5,8.2V-330z"/>
			<path d="M1290.2-355c12.6,0,21-6.2,21-18.8c0-11.7-7-17.6-21-17.6v-0.5c7.5,0,12.7,0.5,17.8,2c7.6,2.3,12,7,12,16.1
				c0,15.4-13,19.3-29.9,19.3V-355z"/>
			<path d="M1365.4-330c4.1-0.5,8.3-2.7,12.4-7.3c4.1-4.7,7-13.5,7-24.4c0-11.1-2.8-19.6-7.1-24c-4.1-4.3-8.1-6.3-12.3-6.7v-0.5
				c6.8,0.1,13.8,2.9,19.6,7.9c5.8,5,9.9,13.5,9.9,23.3c0,9.9-4.1,18.6-10,24c-5.8,5.2-12.9,8.2-19.5,8.2V-330z"/>
			<path d="M1086-364.2h-10.9c10.4,1.1,10.9,12.3,10.9,12.3s0.5-11.2,10.9-12.3H1086z"/>
			<path d="M1150.5-329.5c-6.6,0-13.7-3.1-19.5-8.2c-5.9-5.3-10-14.1-10-24c0-9.8,4.1-18.3,9.9-23.3c5.9-5,12.8-7.8,19.6-7.9v0.5
				c-4.3,0.4-8.1,2.4-12.4,6.7c-4.1,4.3-7,12.8-7,24c0,10.9,2.9,19.7,7,24.4c4.1,4.6,8.3,6.9,12.4,7.3V-329.5z"/>
			<path d="M1225.4-329.5c-6.6,0-13.7-3.1-19.5-8.2c-5.9-5.3-10-14.1-10-24c0-9.8,4.1-18.3,9.9-23.3c5.9-5,12.8-7.8,19.6-7.9v0.5
				c-4.3,0.4-8.1,2.4-12.4,6.7c-4.1,4.3-7,12.8-7,24c0,10.9,2.9,19.7,7,24.4c4.1,4.6,8.3,6.9,12.4,7.3V-329.5z"/>
			<path d="M1264.5-330.4v-0.5c4.5,0,6.8-1.6,6.8-4.8v-51c0-3.2-2.3-4.8-6.8-4.8v-0.5h15.7v56.3c0,3.2,2.3,4.8,6.8,4.8v0.5H1264.5z"
				/>
			<path d="M1355.5-329.5c-6.6,0-13.7-3.1-19.5-8.2c-5.9-5.3-10-14.1-10-24c0-9.8,4.1-18.3,9.9-23.3c5.9-5,12.8-7.8,19.6-7.9v0.5
				c-4.3,0.4-8.1,2.4-12.4,6.7c-4.1,4.3-7,12.8-7,24c0,10.9,2.9,19.7,7,24.4c4.1,4.6,8.3,6.9,12.4,7.3V-329.5z"/>
			<path d="M1412.3-330.4h-15.7v-0.5c4.5,0,6.8-1.5,6.8-4.7v-51.1c0-3.2-2.3-4.8-6.8-4.8v-0.5h15.7V-330.4z"/>
			<path d="M1425.2-362v-0.5l10-0.3c2.8-0.1,4.9-0.7,6.2-1.8c1.4-1.2,2.5-3.2,3.5-6.2h0.5v16.8h-0.5c-1.9-5.8-4-7.5-9.8-7.8
				L1425.2-362z"/>
			<path d="M1421.2-391.9h27.8v15.2h-0.5c-0.8-5.3-1.8-7.9-4-10.3c-1-1.2-2.6-2.1-4.7-2.6c-4.1-1.1-9.1-1.5-18.5-1.8V-391.9z"/>
			<path d="M1065.5-335.7c0,3.2,2.3,4.8,6.7,4.8v0.5h-22.3v-0.5c4.5,0,6.8-1.6,6.8-4.8v-51c0-3.2-2.3-4.8-6.8-4.8v-0.5h22.3v0.5
				c-4.4,0-6.7,1.6-6.7,4.8V-335.7z"/>
		</g>
		<g>
			<path d="M1338.3-323.6c7.2,0,11.3,3.2,11.3,9.3c0,6.3-4.1,9.5-11.3,9.5v-0.2c4.7-0.2,7.1-3.4,7.1-9.4c0-6.9-3.2-8.9-7.1-9.2
				V-323.6z"/>
			<path d="M1352.3-304.8v-0.2c1.4,0,2.1-0.5,2.1-1.4V-322c0-1-0.7-1.5-2.1-1.4v-0.2h7.9v0.2c-1.4,0-2.1,0.5-2.1,1.4v15.6
				c0,1,0.7,1.4,2.1,1.4v0.2H1352.3z"/>
			<path d="M1374.6-312.7h7.6v0.2c-1.4,0-2.1,0.5-2.1,1.6v6.5h-0.2l-0.9-1.8c-1.4,1.1-3.3,1.7-5.9,1.8v-0.2c2-0.1,3.5-1.4,3.5-3.6
				v-2.7c0-1.1-0.6-1.6-2.1-1.6V-312.7z"/>
			<path d="M1384.3-304.8v-0.2c1.4,0,2.1-0.5,2.1-1.4V-322c0-1-0.7-1.5-2.1-1.4v-0.2h7.9v0.2c-1.4,0-2.1,0.5-2.1,1.4v15.6
				c0,1,0.7,1.4,2.1,1.4v0.2H1384.3z"/>
			<path d="M1406.1-323.6h4.9v5.8h-0.2c-0.6-3.5-1.9-5.3-4.7-5.7V-323.6z"/>
			<path d="M1428.6-306.4c0.5,1.1,1.1,1.4,2.4,1.4v0.2h-8.7v-0.2c1.4,0,2.3-0.8,1.7-2.1l-5.7-12.4l2-4.5h0.3L1428.6-306.4z"/>
			<path d="M1439-304.8v-0.2c2.6-0.1,4.4-0.5,5.5-1.2c1.1-0.7,1.9-2.1,2.4-4.2h0.2l-0.1,5.5H1439z"/>
			<path d="M1336.9-304.8h-5.9v-0.2c1.4,0,2.1-0.5,2.1-1.4V-322c0-1-0.7-1.4-2.1-1.4v-0.2h5.9V-304.8z"/>
			<path d="M1365.9-321.3c1.8-1.6,3.9-2.4,5.8-2.6v0.2c-1.1,0.1-2.1,0.7-3,2.1c-0.9,1.3-1.4,3.9-1.4,7.3c0,3.3,0.4,5.7,1.3,7.2
				c0.9,1.5,1.9,2.4,3.2,2.5v0.2c-2.1-0.1-4.1-1-5.9-2.5c-1.7-1.6-2.9-4.2-2.9-7.2C1362.9-317.2,1364.1-319.8,1365.9-321.3z"/>
			<path d="M1379.5-317.2c-0.3-1.7-1-3.1-2.2-4.3c-1.1-1.2-2.5-1.9-4.2-2.2v-0.2c2.5,0.1,4.3,0.6,5.6,1.6l0.8-1.6h0.2v6.7H1379.5z"
				/>
			<path d="M1404.6-306.4c0,1,0.7,1.5,2.1,1.5v0.2h-7.9v-0.2c1.4,0,2.1-0.5,2.1-1.5v-17.2h3.8V-306.4z"/>
			<path d="M1399.4-323.6v0.2c-2.8,0.4-4.2,2.2-4.7,5.7h-0.2v-5.8H1399.4z"/>
			<path d="M1420.2-310.5l-5.7,0.2c-0.4,1.3-0.7,2.3-0.7,2.9c0,0.8,0.3,1.4,1,1.9c0.6,0.4,1.4,0.7,2.1,0.7v0.2h-7.2v-0.1
				c1.1,0,2.1-0.9,2.9-2.6l4.4-9.5l0.1,0.2c-1.2,2.7-2,4.7-2.4,6l5.4,0.1L1420.2-310.5z"/>
			<path d="M1437.6-304.8h-5.9v-0.2c1.4,0,2.1-0.5,2.1-1.4V-322c0-1-0.7-1.4-2.1-1.4v-0.2h7.9v0.2c-1.4,0-2.1,0.5-2.1,1.4V-304.8z"
				/>
		</g>
	</g>
	<g>
		<path class="st2" d="M1878.4-389.9c-4.2,0.9-8.5-0.7-12.6-0.7h0c-2.7-1-5.2-2.7-7.3-4.6c-4.7-4.3-7.5-10.5-7.5-16.8
			c0-9.1,5.4-17.4,13.9-20.9c2.8-1.2,5.7-1.8,8.7-1.8c2.4,0,4.8,0.3,7,0.9c-4.7-2.7-10-4.2-15.5-4.2c-11.6,0-22,6.4-27.2,16.7
			c-3.3,22.6-17.5,36.5-30,48.9c-4.4,4.3-9.2,8.4-14.3,11.9c-2.7,1.9-5.5,3.7-8.4,5.4c-7.4,4.3-15.3,7.7-23.5,10.2
			C1840.2-328.8,1878.2-389.6,1878.4-389.9z"/>
		<path class="st6" d="M1837-427.6c0-0.1,0.1-0.2,0.1-0.3c0.1-0.2,0.1-0.4,0.2-0.6c0-0.1,0.1-0.2,0.1-0.3c0.1-0.2,0.1-0.4,0.2-0.7
			c0-0.1,0-0.2,0.1-0.3c0.1-0.3,0.2-0.6,0.3-0.9c0-0.1,0-0.1,0.1-0.2c0.1-0.2,0.2-0.5,0.3-0.7c0-0.1,0.1-0.2,0.1-0.3
			c0.1-0.2,0.1-0.4,0.2-0.6c0-0.1,0.1-0.2,0.1-0.3c0.1-0.2,0.2-0.4,0.2-0.6c0-0.1,0.1-0.2,0.1-0.3c0.1-0.2,0.2-0.4,0.3-0.7
			c0-0.1,0.1-0.1,0.1-0.2c0.1-0.3,0.3-0.6,0.4-0.8c0-0.1,0.1-0.2,0.1-0.3c0.1-0.2,0.2-0.4,0.3-0.6c0.1-0.1,0.1-0.2,0.2-0.3
			c0.1-0.2,0.2-0.3,0.3-0.5c0.1-0.1,0.1-0.2,0.2-0.3c0.1-0.2,0.2-0.4,0.3-0.5c0.1-0.1,0.1-0.2,0.2-0.3c0.1-0.2,0.3-0.5,0.4-0.7
			c0,0,0-0.1,0.1-0.1c0.2-0.3,0.3-0.5,0.5-0.7c0.1-0.1,0.1-0.2,0.2-0.3c0.1-0.2,0.2-0.3,0.4-0.5c0.1-0.1,0.1-0.2,0.2-0.3
			c0.1-0.2,0.2-0.3,0.4-0.5c0.1-0.1,0.1-0.2,0.2-0.3c0.1-0.2,0.3-0.3,0.4-0.5c0.1-0.1,0.1-0.1,0.2-0.2c0.2-0.2,0.4-0.5,0.6-0.7
			c0-0.1,0.1-0.1,0.1-0.2c0.2-0.2,0.3-0.4,0.5-0.6c0.1-0.1,0.2-0.2,0.2-0.2c0.1-0.2,0.3-0.3,0.4-0.5c0.1-0.1,0.2-0.2,0.2-0.3
			c0.1-0.1,0.3-0.3,0.4-0.4c0.1-0.1,0.2-0.2,0.2-0.2c0.2-0.2,0.4-0.4,0.6-0.5c0,0,0.1-0.1,0.1-0.1c0.2-0.2,0.5-0.4,0.7-0.6
			c0.1-0.1,0.1-0.1,0.2-0.2c0.2-0.2,0.4-0.3,0.5-0.5c0.1-0.1,0.2-0.1,0.3-0.2c0.2-0.1,0.3-0.3,0.5-0.4c0.1-0.1,0.2-0.1,0.3-0.2
			c0.2-0.1,0.4-0.3,0.5-0.4c0.1-0.1,0.2-0.1,0.2-0.2c0.3-0.2,0.5-0.4,0.8-0.6c6.1-4.2,13.3-6.5,20.8-6.5c0.3,0,0.6,0,1,0
			c0.1,0,0.2,0,0.3,0c0.2,0,0.4,0,0.7,0c0.1,0,0.2,0,0.4,0c0.2,0,0.4,0,0.6,0c0.1,0,0.3,0,0.4,0c0.2,0,0.4,0,0.6,0.1
			c0.1,0,0.2,0,0.4,0c0.2,0,0.4,0.1,0.7,0.1c0.1,0,0.2-1.2,0.3-1.2c0.3,0,0.6-1.1,0.9-1.1c0,0,0,0,0,0c0.3,0,0.6,1.4,0.9,1.4
			c-0.1-1.4-0.1-2.1-0.1-3.4c0-12.2,3.6-23.6,10.4-33.6c-13.7-5.9-28.3-8.7-43.3-8.7c-26.3,0-51.7,9.4-71.6,26.5c0.8,0,1.5,0,2.2,0
			c15,0,29.5,5.5,40.7,15.5c9.7,8.6,16.3,20,18.9,32.5C1836.9-427.4,1837-427.5,1837-427.6z"/>
		<path d="M1785.5-474.7c18.4-12.9,40.4-19.9,63.2-19.9c13.2,0,26,2.3,38.2,6.8c0.9-1.7,2-3.4,3.1-5c-13.7-5.9-28.3-8.8-43.3-8.8
			c-26.3,0-51.7,9.4-71.6,26.4c0.8,0,1.5,0,2.2,0C1780.1-475.3,1782.8-475.1,1785.5-474.7z"/>
		<path class="st5" d="M1836.8-428c0,0.2,0.1,0.4,0.1,0.6c0,0,0-0.1,0-0.1C1836.9-427.6,1836.8-427.8,1836.8-428z"/>
		<path class="st1" d="M1848.8-353c0-2.2,0.4-4.2,1.3-6.2c-19.9,12.9-37.4,16.4-39,16.7c8.6,6.9,22.8,9.9,32.8,9.9
			c6.9,0,13.8-1.4,20.4-3.9C1855.7-337,1848.8-344.3,1848.8-353z"/>
		<path class="st3" d="M1900.9-398.4c-1.1-7.8-3.6-15.2-7.9-22v0c0-0.3-0.2-0.5-0.4-0.8c-0.1-0.1-0.1-2.8-0.2-2.9l0-2.5c0,0,0,0,0,0
			c-0.8,0-1.7-0.1-2.7-1.3c-0.5,0.2-1.1,1.6-1.7,1.6c-2.1,0-3.8-1.1-3.8-3.2c0-0.5,0.1-0.7,0.3-1.1c-3.2-1.7-7-2.5-11-2.5
			c-2.8,0-5.5,0.6-8,1.7c-7.8,3.2-12.8,10.8-12.8,19.2c0,5.8,2.3,11.5,6.6,15.5c2,1.8,4.5,3.5,6.5,4.2v0c4,1.9,8.8,1.7,13.1,0.4
			c0.3-0.1,0.7-0.2,1-0.3c0.4-0.1,0.8,0,1,0.3c0.2,0.3,0.3,0.7,0.1,1c-1.9,2.9-3.8,5.7-6,8.3c-10.5,12.6-19.9,20-21.2,20.9
			c0,0.1-3.1,2-3.4,8.7c-0.4,8.1,6.6,14.8,14.8,14.8c1.5,0,3-0.2,4.3-0.6c0,0,0,0,0.1,0c2.7-1.3,4.6-2.5,5.7-3.2
			c16.3-11,26-29,26-48.3C1901.5-393,1901.3-395.7,1900.9-398.4z"/>
		<path class="st4" d="M1914.3-434.1c-3.1,0-6.2,0.3-9.2,0.7c-2.7,0.4-5.5,1.1-8.1,1.9c-1.7,0.5-3.4,1.2-5.1,1.9
			c0.1,0.3,0.1,0.6,0.1,0.8c0,0.9-0.3,1.7-0.8,2.3c0.8,1,1.6,2.1,2.3,3.3c0.2-0.1,0.4-0.2,0.6-0.3c4.1-2.1,8.5-3.6,13.1-4.7
			c4.4-1,8.9-1.5,13.4-1.5c10.2,0,20.1,2.6,28.9,7.5C1939.4-429.9,1927.1-434.1,1914.3-434.1z"/>
		<path class="st7" d="M1897.5-443.3c-3.7-3.8-8.3-6.8-13.3-8.5c-1.1-0.4-2.3-0.7-3.7-1.1c-2.7-0.6-5.3-0.9-7.9-0.9
			c-7.1,0-13.9,2.1-19.8,6.1c-0.3,0.2-0.5,0.4-0.8,0.5c-0.1,0.1-0.2,0.1-0.2,0.2c-0.2,0.1-0.4,0.3-0.5,0.4c-0.1,0.1-0.2,0.1-0.2,0.2
			c-0.2,0.1-0.3,0.3-0.5,0.4c-0.1,0.1-0.2,0.1-0.2,0.2c-0.2,0.1-0.4,0.3-0.5,0.4c-0.1,0.1-0.1,0.1-0.2,0.2c-0.2,0.2-0.4,0.4-0.6,0.6
			c0,0,0,0-0.1,0.1c-5.4,5-9.1,11.6-10.5,18.8c6-8.7,15.8-14,26.6-14c7.7,0,15.2,2.8,21,7.7c0.6-0.4,1.3-0.6,2.1-0.6
			c1.2,0,2.3,0.5,3,1.4c1.8-0.8,3.6-1.4,5.3-2c0.5-0.2,1.1-0.3,1.6-0.5c0.1,0,0.2,0,0.3-0.1c0.5-0.1,1-0.3,1.5-0.4
			c0.1,0,0.2,0,0.3-0.1c0.5-0.1,1-0.2,1.6-0.4c0.1,0,0.1,0,0.2,0c0.5-0.1,1-0.2,1.5-0.3c0,0,0.1,0,0.1,0
			C1902-438,1900-440.8,1897.5-443.3z"/>
		<path class="st8" d="M1858.4-364.7"/>
		<path d="M1758.9-344.4c0,0-8.6,0.6-20.1,0c0,0,11.8,6.2,14.9,26.8c0,0,36.2-19,76.3-14.9c0,0-12.4-2-20.5-9.3
			C1809.4-341.9,1780.4-337.3,1758.9-344.4z"/>
	</g>
	<path d="M2311.4-374.6c8.7,0,13.7,3.9,13.7,11.3c0,7.6-5,11.5-13.7,11.5v-0.2c5.7-0.3,8.6-4.1,8.6-11.3c0-8.4-3.8-10.8-8.6-11.1
		V-374.6z"/>
	<path d="M2328.4-351.8v-0.2c1.7,0,2.5-0.6,2.5-1.7v-18.9c0-1.2-0.8-1.8-2.5-1.7v-0.2h9.6v0.2c-1.7,0-2.5,0.6-2.5,1.7v18.9
		c0,1.2,0.8,1.7,2.5,1.7v0.2H2328.4z"/>
	<path d="M2355.3-361.5h9.2v0.2c-1.6,0-2.5,0.6-2.5,1.9v7.8h-0.3l-1-2.2c-1.6,1.3-4,2.1-7.1,2.2v-0.2c2.4-0.2,4.2-1.7,4.2-4.3v-3.3
		c0-1.4-0.7-1.9-2.5-1.9V-361.5z"/>
	<path d="M2367-351.8v-0.2c1.7,0,2.5-0.6,2.5-1.7v-18.9c0-1.2-0.8-1.8-2.5-1.7v-0.2h9.6v0.2c-1.7,0-2.5,0.6-2.5,1.7v18.9
		c0,1.2,0.8,1.7,2.5,1.7v0.2H2367z"/>
	<path d="M2393.4-374.6h5.9v7h-0.2c-0.7-4.2-2.3-6.4-5.7-6.8V-374.6z"/>
	<path d="M2420.5-353.8c0.6,1.3,1.3,1.7,2.9,1.7v0.2h-10.6v-0.2c1.7,0,2.7-0.9,2-2.5l-6.9-15l2.4-5.4h0.3L2420.5-353.8z"/>
	<path d="M2433.1-351.8v-0.2c3.1-0.1,5.3-0.6,6.6-1.4c1.3-0.8,2.2-2.5,2.9-5.1h0.2l-0.1,6.7H2433.1z"/>
	<g>
		<path d="M2408-382.8v-0.5c11.7-0.3,17.8-0.9,23.2-2.2c8.1-2.7,9.5-6.8,12.2-16.4h0.7l-0.8,19.1H2408z"/>
		<path d="M2049.2-456.6c-5.5,0-8.2,2-8.2,5.8v61.7c0,3.8,2.1,5.8,8.2,5.8v0.5h-27.1v-0.5c6.1,0,8.2-2,8.2-5.8v-61.7
			c0-3.9-2.7-5.9-8.2-5.8v-0.5h27.1V-456.6z"/>
		<path d="M2096.5-382.3c4.9-0.5,10.1-3.3,15-8.9c4.9-5.7,8.4-16.3,8.4-29.5c0-13.4-3.4-23.7-8.5-29c-4.9-5.2-9.7-7.7-14.9-8.1v-0.5
			c8.2,0.1,16.7,3.5,23.7,9.5c7,6,11.9,16.3,11.9,28.1c0,11.9-4.9,22.5-12,29c-7,6.2-15.6,9.9-23.6,9.9V-382.3z"/>
		<path d="M2187-382.3c4.9-0.5,10.1-3.3,15-8.9c4.9-5.7,8.4-16.3,8.4-29.5c0-13.4-3.4-23.7-8.5-29c-4.9-5.2-9.7-7.7-14.9-8.1v-0.5
			c8.2,0.1,16.7,3.5,23.7,9.5c7,6,11.9,16.3,11.9,28.1c0,11.9-4.9,22.5-12,29c-7,6.2-15.6,9.9-23.6,9.9V-382.3z"/>
		<path d="M2253.2-412.6c15.2,0,25.4-7.5,25.4-22.7c0-14.1-8.4-21.2-25.4-21.3v-0.5c9.1,0,15.3,0.5,21.5,2.4
			c9.2,2.7,14.5,8.4,14.5,19.5c0,18.6-15.7,23.3-36.1,23.3V-412.6z"/>
		<path d="M2344.2-382.3c4.9-0.5,10.1-3.3,15-8.9c4.9-5.7,8.4-16.3,8.4-29.5c0-13.4-3.4-23.7-8.5-29c-4.9-5.2-9.7-7.7-14.9-8.1v-0.5
			c8.2,0.1,16.7,3.5,23.7,9.5c7,6,11.9,16.3,11.9,28.1c0,11.9-4.9,22.5-12,29c-7,6.2-15.6,9.9-23.6,9.9V-382.3z"/>
		<path d="M2006.5-423.7h-13.2c12.5,1.3,13.2,14.9,13.2,14.9s0.6-13.6,13.2-14.9H2006.5z"/>
		<path d="M2084.4-381.7c-8,0-16.5-3.7-23.6-9.9c-7.1-6.5-12-17.1-12-29c0-11.8,4.9-22.1,11.9-28.1c7.1-6,15.5-9.4,23.7-9.5v0.5
			c-5.1,0.4-9.8,2.8-15,8.1c-4.9,5.2-8.4,15.5-8.4,29c0,13.2,3.5,23.8,8.4,29.5c4.9,5.6,10.1,8.3,15,8.9V-381.7z"/>
		<path d="M2175-381.7c-8,0-16.5-3.7-23.6-9.9c-7.1-6.5-12-17.1-12-29c0-11.8,4.9-22.1,11.9-28.1c7.1-6,15.5-9.4,23.7-9.5v0.5
			c-5.1,0.4-9.8,2.8-15,8.1c-4.9,5.2-8.4,15.5-8.4,29c0,13.2,3.5,23.8,8.4,29.5c4.9,5.6,10.1,8.3,15,8.9V-381.7z"/>
		<path d="M2222.3-382.8v-0.5c5.5,0,8.2-2,8.2-5.8v-61.7c0-3.8-2.7-5.8-8.2-5.8v-0.5h18.9v68c0,3.8,2.7,5.8,8.2,5.8v0.5H2222.3z"/>
		<path d="M2332.1-381.7c-8,0-16.5-3.7-23.6-9.9c-7.1-6.5-12-17.1-12-29c0-11.8,4.9-22.1,11.9-28.1c7.1-6,15.5-9.4,23.7-9.5v0.5
			c-5.1,0.4-9.8,2.8-15,8.1c-4.9,5.2-8.4,15.5-8.4,29c0,13.2,3.5,23.8,8.4,29.5c4.9,5.6,10.1,8.3,15,8.9V-381.7z"/>
		<path d="M2400.8-382.8h-18.9v-0.5c5.5,0,8.2-1.9,8.2-5.7v-61.8c0-3.8-2.7-5.8-8.2-5.8v-0.5h18.9V-382.8z"/>
		<path d="M2416.5-421v-0.7l12.1-0.3c3.4-0.1,5.9-0.9,7.5-2.2c1.6-1.4,3.1-3.8,4.3-7.4h0.7v20.3h-0.7c-2.3-7-4.8-9.1-11.8-9.4
			L2416.5-421z"/>
		<path d="M2411.6-457.2h33.6v18.4h-0.7c-1-6.5-2.2-9.5-4.8-12.5c-1.2-1.4-3.2-2.5-5.7-3.2c-4.9-1.3-11-1.9-22.4-2.2V-457.2z"/>
		<path d="M1981.8-389.2c0,3.8,2.7,5.8,8.1,5.8v0.5h-27v-0.5c5.5,0,8.2-2,8.2-5.8v-61.7c0-3.8-2.7-5.8-8.2-5.8v-0.5h27v0.5
			c-5.4,0-8.1,2-8.1,5.8V-389.2z"/>
	</g>
	<path d="M2309.7-351.8h-7.1v-0.2c1.7,0,2.5-0.6,2.5-1.7v-18.9c0-1.2-0.8-1.7-2.5-1.7v-0.2h7.1V-351.8z"/>
	<path d="M2344.8-371.9c2.1-1.9,4.7-2.9,7-3.1v0.2c-1.4,0.1-2.5,0.9-3.7,2.5c-1.1,1.6-1.7,4.7-1.7,8.8c0,4,0.5,6.9,1.6,8.7
		c1,1.8,2.3,2.8,3.8,3v0.2c-2.5-0.1-5-1.2-7.1-3c-2.1-1.9-3.5-5-3.5-8.7C2341.2-366.9,2342.6-370,2344.8-371.9z"/>
	<path d="M2361.2-366.9c-0.4-2-1.2-3.8-2.6-5.2c-1.4-1.4-3.1-2.3-5.1-2.7v-0.2c3,0.2,5.2,0.8,6.7,1.9l1-1.9h0.2v8.1H2361.2z"/>
	<path d="M2391.6-353.8c0,1.2,0.8,1.8,2.5,1.8v0.2h-9.6v-0.2c1.7,0,2.5-0.6,2.5-1.8v-20.8h4.6V-353.8z"/>
	<path d="M2385.3-374.6v0.2c-3.4,0.4-5,2.6-5.7,6.8h-0.2v-7H2385.3z"/>
	<path d="M2410.4-358.8l-6.8,0.2c-0.5,1.6-0.8,2.7-0.8,3.5c0,1,0.4,1.7,1.2,2.2c0.8,0.5,1.6,0.8,2.6,0.8v0.2h-8.7v-0.1
		c1.4,0,2.5-1,3.6-3.1l5.3-11.5l0.1,0.2c-1.4,3.3-2.4,5.7-2.9,7.2l6.6,0.2L2410.4-358.8z"/>
	<path d="M2431.4-351.8h-7.1v-0.2c1.7,0,2.5-0.6,2.5-1.7v-19c0-1.2-0.8-1.7-2.5-1.7v-0.2h9.6v0.2c-1.7,0-2.5,0.6-2.5,1.7V-351.8z"/>
	<path d="M86.2-288c0,0,16.1,1,23.1,1.6c7.9,0.7,23.3-3.3,23.3-3.3l-26.7-6L86.2-288z"/>
	<path d="M180.7-403l-0.7,2.4l0.2,0.5c-0.1,0-0.1,0-0.2,0c-0.6,0.1-1.2,0.3-1.7,0.4c-0.1,0-0.2,0.1-0.3,0.1
		c-0.6,0.1-1.1,0.3-1.7,0.4c-0.1,0-0.2,0.1-0.3,0.1c-0.6,0.2-1.2,0.3-1.7,0.5c-1.9,0.6-3.9,1.3-5.9,2.2c-0.8-0.9-2-1.5-3.3-1.5
		c-0.9,0-1.6,0.3-2.3,0.7c-6.4-5.4-14.7-8.5-23.2-8.5c-11.9,0-22.8,5.8-29.4,15.4c1.6-8,5.6-15.3,11.6-20.8c0,0,0,0,0.1-0.1
		c0.2-0.2,0.5-0.4,0.7-0.6c0.1-0.1,0.1-0.1,0.2-0.2c0.2-0.2,0.4-0.3,0.6-0.5c0.1-0.1,0.2-0.1,0.3-0.2c0.2-0.1,0.4-0.3,0.6-0.4
		c0.1-0.1,0.2-0.1,0.3-0.2c0.2-0.1,0.4-0.3,0.6-0.4c0.1-0.1,0.2-0.1,0.3-0.2c0.3-0.2,0.6-0.4,0.8-0.6c6.4-4.4,14-6.8,21.8-6.8
		c2,0,4.1,0.2,6.1,0.5l0.9,1.2c0,0,1.4,0.4,1.1-0.8c-0.3-1.3-0.4-3.7-0.4-3.7l-1.8,1l-0.1,0.3c0,0,0,0-0.1,0c-0.1,0-0.2,0-0.4,0
		c-0.2,0-0.5-0.1-0.7-0.1c-0.1,0-0.3,0-0.4,0c-0.2,0-0.4,0-0.7-0.1c-0.1,0-0.3,0-0.4,0c-0.2,0-0.4,0-0.7,0c-0.1,0-0.3,0-0.4,0
		c-0.2,0-0.5,0-0.7,0c-0.1,0-0.2,0-0.3,0c-0.4,0-0.7,0-1.1,0c-8.2,0-16.2,2.5-23,7.1c-0.3,0.2-0.6,0.4-0.9,0.6
		c-0.1,0.1-0.2,0.1-0.3,0.2c-0.2,0.1-0.4,0.3-0.6,0.4c-0.1,0.1-0.2,0.2-0.3,0.2c-0.2,0.1-0.4,0.3-0.6,0.4c-0.1,0.1-0.2,0.2-0.3,0.2
		c-0.2,0.2-0.4,0.3-0.6,0.5c-0.1,0.1-0.1,0.1-0.2,0.2c-0.3,0.2-0.5,0.5-0.8,0.7c-0.1,0-0.1,0.1-0.2,0.1c-0.2,0.2-0.4,0.4-0.6,0.6
		c-0.1,0.1-0.2,0.2-0.3,0.3c-0.2,0.2-0.3,0.3-0.5,0.5c-0.1,0.1-0.2,0.2-0.3,0.3c-0.2,0.2-0.3,0.3-0.5,0.5c-0.1,0.1-0.2,0.2-0.2,0.3
		c-0.2,0.2-0.4,0.4-0.5,0.6c0,0.1-0.1,0.1-0.1,0.2c-0.2,0.3-0.4,0.5-0.7,0.8c-0.1,0.1-0.1,0.2-0.2,0.2c-0.2,0.2-0.3,0.4-0.5,0.6
		c-0.1,0.1-0.2,0.2-0.2,0.3c-0.1,0.2-0.3,0.4-0.4,0.5c-0.1,0.1-0.2,0.2-0.2,0.3c-0.1,0.2-0.3,0.4-0.4,0.6c-0.1,0.1-0.1,0.2-0.2,0.3
		c-0.2,0.3-0.4,0.5-0.6,0.8c0,0,0,0.1-0.1,0.1c-0.2,0.3-0.3,0.5-0.5,0.8c-0.1,0.1-0.1,0.2-0.2,0.3c-0.1,0.2-0.2,0.4-0.3,0.6
		c-0.1,0.1-0.1,0.2-0.2,0.3c-0.1,0.2-0.2,0.4-0.3,0.6c-0.1,0.1-0.1,0.2-0.2,0.3c-0.1,0.2-0.2,0.4-0.3,0.6c0,0.1-0.1,0.2-0.1,0.3
		c-0.2,0.3-0.3,0.6-0.4,0.9c0,0.1-0.1,0.2-0.1,0.2c-0.1,0.2-0.2,0.5-0.3,0.7c0,0.1-0.1,0.2-0.1,0.3c-0.1,0.2-0.2,0.4-0.3,0.6
		c0,0.1-0.1,0.2-0.1,0.4c-0.1,0.2-0.2,0.4-0.2,0.6c0,0.1-0.1,0.2-0.1,0.3c-0.1,0.3-0.2,0.5-0.3,0.8c0,0.1,0,0.1-0.1,0.2
		c-0.1,0.3-0.2,0.5-0.3,0.8l-1.8-1.3c0,0,2.7,8.8,1.4,14.3l4.5-3.7l-1.9-3c6.2-9.4,16.6-15,28.1-15c6.1,0,12,1.6,17.1,4.6
		c-2.4-0.7-5-1-7.7-1c-3.3,0-6.6,0.7-9.6,1.9c-9.3,3.9-15.3,13-15.3,23.1c0,7,3,13.8,8.2,18.6c2.4,2.2,5.1,4.1,8.1,5.1h0
		c4.5,1,9.2,1.8,13.9,0.8c-0.1,0.2-19,30.4-57.7,45l-0.3-1.9L32-301.4l-1.2-0.5c-0.4,0.4-0.9,0.6-1.6,0.6c0,0-0.1,0-0.1,0
		c-0.3,0.2-0.7,0.3-1.1,0.3c-0.5,0-1-0.1-1.3-0.4c-1.9,0.6-4.1,1-6.3,1l1.7,1.6l-11.2,4.3l75.5,5.1l4.5-0.9c2.5,1,4.8,1.7,6.6,2.1
		c0.5-0.6,1.3-1.1,2.1-1.1c0.1,0,0.1,0,0.2,0c0,0,0,0,0,0c0.2,0,0.3-0.1,0.5-0.1c0,0,0,0,0,0c-1.9-0.5-3.9-1-5.7-1.6l4.7-1l-2-11.6
		c7.3-2.8,16.4-7.1,26-13.3c-0.9,2.2-1.4,4.4-1.4,6.8c0,7.2,4.2,13.4,10.2,16.4c-1.2,2.1-1.7,4.4,2.3,3.4c0.3-0.9,1.1-1.7,2.3-1.7
		c0.5,0,0.9,0.1,1.2,0.3c0.1,0,0.1,0,0.2,0c0.1,0,0.2,0,0.3,0c0.1,0,0.2,0,0.3,0c0,0,0.1,0,0.1,0c2.3-0.9,4.4-1.8,6.2-2.8
		c-0.6-0.8-0.7-2-0.2-2.9l-10.5,0.5c0,0-0.5,0.6-1.1,1.5c-5.7-2.6-9.7-8.2-9.3-14.8c0.4-7.4,3.7-9.5,3.8-9.6
		c1.4-1.1,11.8-9.2,23.4-23.1c2.4-2.9,4.6-6,6.6-9.2c0.2-0.4,0.2-0.8,0-1.1c-0.3-0.3-0.7-0.5-1.1-0.3c-0.3,0.1-0.6,0.3-0.9,0.4
		c-4.8,1.4-9.6,1.6-14.3-0.5h0c-2.8-0.7-5.3-2.6-7.5-4.6c-4.8-4.4-7.6-10.6-7.6-17.1c0-9.3,5.5-17.6,14.1-21.2
		c2.8-1.2,5.8-1.8,8.9-1.8c4.4,0,8.7,1.1,12.1,3c-0.3,0.8-0.4,1.8-0.1,2.8c0.4,1.5,1.7,2.6,3.2,2.9c1,0.2,1.9,0.1,2.7-0.3
		c0.3,0.4,0.7,0.9,1,1.4l-1.3,2.1c0,0,1.3,1.2,2.8,0s4.9-2.7,4.9-2.7l-2.2-1l-2.5,0.4c-0.4-0.5-0.8-1-1.1-1.5
		c0.6-0.7,0.9-1.6,0.9-2.6c0-0.3,0-0.6-0.1-0.9c1.9-0.8,3.8-1.5,5.6-2.1c2-0.6,4-1.1,6.1-1.6l0.6,1.3l1.5-1.7
		C182.8-399.4,180.7-403,180.7-403z"/>
	<g>
		<path class="st2" d="M154.3-350.7c-4.7,1-9.4,0.2-13.9-0.8h0c-3-1-5.7-2.9-8.1-5.1c-5.2-4.7-8.2-11.6-8.2-18.6
			c0-10.1,6-19.2,15.3-23.1c3.1-1.3,6.3-1.9,9.6-1.9c2.7,0,5.3,0.4,7.7,1c-5.1-3-11-4.6-17.1-4.6c-12.8,0-24.5,7.4-30.3,18.8
			c-3.6,25-19.1,40-32.9,53.7c-4.9,4.8-10.2,9.2-15.8,13.2c-3,2.1-6.1,4.1-9.3,5.9c-8.2,4.7-16.9,8.5-26,11.2
			C112.1-283.3,154.1-350.5,154.3-350.7z"/>
		<path class="st6" d="M108.6-392.4c0-0.1,0.1-0.2,0.1-0.4c0.1-0.2,0.1-0.5,0.2-0.7c0-0.1,0.1-0.2,0.1-0.4c0.1-0.2,0.1-0.5,0.2-0.7
			c0-0.1,0.1-0.2,0.1-0.3c0.1-0.3,0.2-0.7,0.3-1c0-0.1,0-0.1,0.1-0.2c0.1-0.3,0.2-0.5,0.3-0.8c0-0.1,0.1-0.2,0.1-0.3
			c0.1-0.2,0.2-0.4,0.2-0.6c0-0.1,0.1-0.2,0.1-0.4c0.1-0.2,0.2-0.4,0.3-0.6c0-0.1,0.1-0.2,0.1-0.3c0.1-0.2,0.2-0.5,0.3-0.7
			c0-0.1,0.1-0.2,0.1-0.2c0.1-0.3,0.3-0.6,0.4-0.9c0-0.1,0.1-0.2,0.1-0.3c0.1-0.2,0.2-0.4,0.3-0.6c0.1-0.1,0.1-0.2,0.2-0.3
			c0.1-0.2,0.2-0.4,0.3-0.6c0.1-0.1,0.1-0.2,0.2-0.3c0.1-0.2,0.2-0.4,0.3-0.6c0.1-0.1,0.1-0.2,0.2-0.3c0.2-0.3,0.3-0.5,0.5-0.8
			c0,0,0-0.1,0.1-0.1c0.2-0.3,0.4-0.6,0.6-0.8c0.1-0.1,0.1-0.2,0.2-0.3c0.1-0.2,0.3-0.4,0.4-0.6c0.1-0.1,0.2-0.2,0.2-0.3
			c0.1-0.2,0.3-0.4,0.4-0.5c0.1-0.1,0.2-0.2,0.2-0.3c0.1-0.2,0.3-0.4,0.5-0.6c0.1-0.1,0.1-0.2,0.2-0.2c0.2-0.3,0.4-0.5,0.7-0.8
			c0-0.1,0.1-0.1,0.1-0.2c0.2-0.2,0.4-0.4,0.5-0.6c0.1-0.1,0.2-0.2,0.2-0.3c0.2-0.2,0.3-0.3,0.5-0.5c0.1-0.1,0.2-0.2,0.3-0.3
			c0.2-0.2,0.3-0.3,0.5-0.5c0.1-0.1,0.2-0.2,0.3-0.3c0.2-0.2,0.4-0.4,0.6-0.6c0.1,0,0.1-0.1,0.2-0.1c0.3-0.2,0.5-0.5,0.8-0.7
			c0.1-0.1,0.1-0.1,0.2-0.2c0.2-0.2,0.4-0.3,0.6-0.5c0.1-0.1,0.2-0.2,0.3-0.2c0.2-0.1,0.4-0.3,0.6-0.4c0.1-0.1,0.2-0.2,0.3-0.2
			c0.2-0.2,0.4-0.3,0.6-0.4c0.1-0.1,0.2-0.1,0.3-0.2c0.3-0.2,0.6-0.4,0.9-0.6c6.8-4.7,14.7-7.1,23-7.1c0.4,0,0.7,0,1.1,0
			c0.1,0,0.2,0,0.3,0c0.2,0,0.5,0,0.7,0c0.1,0,0.3,0,0.4,0c0.2,0,0.4,0,0.7,0c0.1,0,0.3,0,0.4,0c0.2,0,0.4,0,0.7,0.1
			c0.1,0,0.3,0,0.4,0c0.2,0,0.5,0.1,0.7,0.1c0.1,0,0.2,0,0.4,0c0.3,0.1,0.7,0.1,1,0.2c0,0,0,0,0,0c0.3,0.1,0.7,0.1,1,0.2
			c-0.1-1.6-0.2-3-0.2-4.5c0-13.5,4-26.4,11.5-37.5c-15.1-6.5-31.2-9.7-47.8-9.7c-29.1,0-57.1,10.3-79.2,29.2c0.9,0,1.7-0.1,2.4-0.1
			c16.6,0,32.6,6.1,45,17.1c10.7,9.6,18,22.1,20.9,35.9C108.5-392.2,108.5-392.3,108.6-392.4z"/>
		<path d="M51.7-444.5c20.4-14.2,44.7-22,69.8-22c14.6,0,28.7,2.5,42.2,7.5c1-1.9,2.2-3.7,3.4-5.5c-15.1-6.5-31.2-9.7-47.8-9.7
			c-29.1,0-57.1,10.3-79.2,29.2c0.9,0,1.7-0.1,2.4-0.1C45.7-445.1,48.7-444.9,51.7-444.5z"/>
		<path class="st5" d="M108.3-392.8c0,0.2,0.1,0.4,0.2,0.7c0,0,0-0.1,0-0.1C108.5-392.4,108.4-392.6,108.3-392.8z"/>
		<path class="st1" d="M121.6-310c0-2.4,0.5-4.6,1.4-6.8c-22,14.3-41.4,18.1-43.1,18.5c9.5,7.6,25.2,11,36.2,11
			c7.6,0,15.3-1.5,22.6-4.3C129.2-292.3,121.6-300.3,121.6-310z"/>
		<path class="st3" d="M179.2-360.1c-1.5-15.6-11.3-28.4-12.3-29.8c-0.8,0.4-1.7,0.5-2.7,0.3c-1.5-0.3-2.7-1.5-3.2-2.9
			c-0.3-1-0.2-2,0.1-2.8c-3.5-1.9-7.7-3-12.1-3c-3.1,0-6,0.6-8.9,1.8c-8.6,3.6-14.1,11.9-14.1,21.2c0,6.5,2.8,12.7,7.6,17.1
			c2.2,2,4.7,3.9,7.5,4.6h0c4.6,2.1,9.5,1.8,14.3,0.5c0.3-0.1,0.6-0.3,0.9-0.4c0.4-0.1,0.8,0,1.1,0.3c0.3,0.3,0.3,0.8,0,1.1
			c-2.1,3.2-4.2,6.3-6.6,9.2c-11.6,13.9-22,22.1-23.4,23.1c-0.1,0.1-3.4,2.2-3.8,9.6c-0.5,9,7.3,16.4,16.4,16.4
			c1.6,0,3.3-0.2,4.8-0.7c0,0,0,0,0,0c3.1-1.5,5.2-2.8,6.4-3.6c18.1-12.1,28.8-32.1,28.8-53.3C179.9-354.2,179.5-357.1,179.2-360.1z
			"/>
		<path class="st4" d="M194-399.6c-3.4,0-6.8,0.3-10.2,0.8c-3,0.5-6,1.2-8.9,2.1c-1.9,0.6-3.7,1.3-5.6,2.1c0.1,0.3,0.1,0.6,0.1,0.9
			c0,1-0.3,1.9-0.9,2.6c0.8,1.1,1.8,2.4,2.6,3.6c0.2-0.1,0.4-0.2,0.6-0.3c4.6-2.3,9.4-4,14.4-5.2c4.9-1.1,9.9-1.7,14.8-1.7
			c11.3,0,22.2,2.9,32,8.3C221.8-395,208.2-399.6,194-399.6z"/>
		<path class="st7" d="M175.5-409.7c-4.1-4.2-9.2-7.5-14.7-9.4c-1.2-0.4-2.5-0.8-4.1-1.2c-2.9-0.7-5.9-1-8.7-1
			c-7.8,0-15.4,2.3-21.8,6.8c-0.3,0.2-0.6,0.4-0.8,0.6c-0.1,0.1-0.2,0.1-0.3,0.2c-0.2,0.1-0.4,0.3-0.6,0.4c-0.1,0.1-0.2,0.1-0.3,0.2
			c-0.2,0.1-0.4,0.3-0.6,0.4c-0.1,0.1-0.2,0.1-0.3,0.2c-0.2,0.2-0.4,0.3-0.6,0.5c-0.1,0.1-0.1,0.1-0.2,0.2c-0.2,0.2-0.5,0.4-0.7,0.6
			c0,0,0,0-0.1,0.1c-6,5.5-10.1,12.8-11.6,20.8c6.6-9.6,17.5-15.4,29.4-15.4c8.5,0,16.8,3.1,23.2,8.5c0.7-0.4,1.5-0.7,2.3-0.7
			c1.3,0,2.5,0.6,3.3,1.5c2-0.8,4-1.6,5.9-2.2c0.6-0.2,1.2-0.4,1.7-0.5c0.1,0,0.2-0.1,0.3-0.1c0.6-0.2,1.1-0.3,1.7-0.4
			c0.1,0,0.2-0.1,0.3-0.1c0.6-0.1,1.2-0.3,1.7-0.4c0.1,0,0.1,0,0.2,0c0.6-0.1,1.2-0.3,1.8-0.4c0,0,0,0,0,0
			C180.4-403.9,178.1-407,175.5-409.7z"/>
		<path class="st8" d="M132.3-322.9"/>
		<path d="M22.3-300.5c0,0-9.5,0.7-22.3,0c0,0,13,6.8,16.5,29.6c0,0,40-20.9,84.3-16.5c0,0-13.7-2.2-22.7-10.3
			C78.1-297.7,46-292.6,22.3-300.5z"/>
	</g>
	<text transform="matrix(1 0 0 1 1163.2769 -188.5505)" style="font-family:'Lato-Bold'; font-size:36px;">20242c</text>
	<text transform="matrix(1 0 0 1 1448.717 -188.5505)" style="font-family:'Lato-Bold'; font-size:36px;">e8e3e1</text>
	<text transform="matrix(1 0 0 1 1720.2822 -188.5505)" style="font-family:'Lato-Bold'; font-size:36px;">a34823</text>
	<text transform="matrix(1 0 0 1 1985.9023 -188.5505)" style="font-family:'Lato-Bold'; font-size:36px;">ce8345</text>
	<text transform="matrix(1 0 0 1 2237.6636 -188.5505)" style="font-family:'Lato-Bold'; font-size:36px;">e7a15e</text>
	<text transform="matrix(1 0 0 1 2517.5859 -188.5505)" style="font-family:'Lato-Bold'; font-size:36px;">f9cf9d</text>
</g>
</svg>
